<?xml version="1.0" encoding="UTF-8" standalone="no"?>
<svg width="820px" height="620px" viewBox="0 0 820 620" version="1.1" xmlns="http://www.w3.org/2000/svg" xmlns:xlink="http://www.w3.org/1999/xlink" xmlns:sketch="http://www.bohemiancoding.com/sketch/ns">
    <!-- Generator: Sketch 3.0.3 (7891) - http://www.bohemiancoding.com/sketch -->
    <title>stacks-scheme</title>
    <desc>Created with Sketch.</desc>
    <defs>
        <path id="path-1" d="M54.2273014,88.3593149 L-0.129504712,174.18989 C-1.28495588,176.014372 4.09167505,177.493407 11.8702281,177.493407 L377.998928,177.493407 C385.781649,177.493407 391.153494,176.013395 389.998661,174.18989 L335.641855,88.3593149 C334.486404,86.5348325 329.11101,85.0557973 323.642122,85.0557973 L66.2270342,85.0557973 C60.755216,85.0557973 55.3821339,86.5358095 54.2273014,88.3593149 Z"></path>
    </defs>
    <g id="Page-1-Copy-Copy" stroke="none" stroke-width="1" fill="none" fill-rule="evenodd" sketch:type="MSPage">
        <g id="yes-no" sketch:type="MSLayerGroup" transform="translate(40.991431, 153.561518)">
            <g id="empty-2" transform="translate(0.542330, 0.092293)">
                <g id="Rectangle-1">
                    <use stroke="none" sketch:type="MSShapeGroup" xlink:href="#path-1"></use>
                    <use stroke="#979797" stroke-width="4" stroke-dasharray="16" xlink:href="#path-1"></use>
                </g>
            </g>
            <g id="no" transform="translate(0.081019, 320.651053)" sketch:type="MSShapeGroup">
                <path d="M54.6886122,3.25813991 L0.331806086,89.0887146 C-0.823645082,90.9131971 4.55298585,92.3922323 12.3315389,92.3922323 L378.460239,92.3922323 C386.24296,92.3922323 391.614804,90.9122201 390.459972,89.0887146 L336.103166,3.25813991 C334.947715,1.43365747 329.572321,-0.045377769 324.103433,-0.045377769 L66.688345,-0.045377769 C61.2165268,-0.045377769 55.8434447,1.43463446 54.6886122,3.25813991 Z" id="Rectangle-1" fill="#FF4646"></path>
                <path d="M80.5961598,58.8759058 C85.5205394,58.8635971 88.7909713,58.7651293 90.4063393,58.5804993 C91.0893432,58.5066473 91.6010042,58.3897167 91.9413563,58.2297041 C92.5002672,57.9835308 93.0665339,57.3373356 93.6397375,56.2910991 C94.5173192,54.6663554 95.1724165,53.2631886 95.607515,52.0815568 L101.148195,37.0342894 C101.29776,36.6281034 101.309093,36.3634711 101.182318,36.2403845 C100.920143,36.0188285 100.245071,35.7541962 99.1588116,35.4464796 C98.4617017,35.2495409 97.6207658,35.123379 96.6354113,35.06799 C95.6504959,35.012601 93.4263721,34.9787527 89.9628963,34.966444 L90.4459269,33.803281 C97.5450448,33.8525157 102.012257,33.8771327 103.845616,33.8771327 C106.958064,33.8771327 110.057458,33.8525157 113.142995,33.803281 C116.340936,35.1695428 118.715905,36.1788382 120.245194,36.8311974 L132.501521,41.5392382 L151.291682,48.2597355 C157.524511,50.4014432 162.61225,52.0877049 166.503892,53.3185714 C168.996602,54.1309433 171.104216,54.7709843 172.819787,55.2387135 L173.931164,41.7423301 C174.030494,40.536081 173.994734,39.1206058 173.826758,37.495862 C173.740397,36.4742428 173.514862,35.8403561 173.149672,35.5941828 C172.863366,35.4341702 172.4235,35.3172396 171.83004,35.2433876 C170.432375,35.0710663 167.50818,34.9787527 163.056253,34.966444 L163.204414,33.803281 C168.228733,33.8525157 173.321045,33.8771327 178.480034,33.8771327 C183.340568,33.8771327 187.7541,33.8525157 191.719603,33.803281 L191.702683,34.966444 C187.24901,34.9787527 184.311713,35.0710663 182.889592,35.2433876 C182.28565,35.3172396 181.850311,35.4403244 181.58356,35.6126457 C181.141185,35.8465103 180.803492,36.4927056 180.569991,37.5512507 C180.21489,39.1759945 180.001425,40.573007 179.932055,41.7423301 L179.405212,50.6229873 C179.298602,52.4200524 179.215444,55.7741132 179.16195,60.6852704 L171.922721,60.1313833 L170.236743,60.0390688 C169.956696,60.0144514 169.701357,59.977526 169.470743,59.9282913 C169.147328,59.866748 168.277935,59.6205784 166.865809,59.1897752 C163.107548,58.0327607 160.369136,57.1588586 158.632027,56.5680427 L150.141256,53.5585892 L106.669802,37.9205088 L101.777871,52.0815568 C101.361173,53.2878059 101.031593,54.7094354 100.792021,56.3464878 C100.627305,57.368107 100.715562,57.9958395 101.056293,58.2297041 C101.325045,58.4020254 101.774616,58.5251102 102.404976,58.5989622 C103.892785,58.7712835 107.071571,58.8635971 111.940316,58.8759058 L111.59088,60.0390688 C107.477761,59.9529081 102.929805,59.9098284 97.9449575,59.9098284 C92.4898412,59.9098284 86.5477307,59.9529081 80.1154832,60.0390688 M210.207036,44.7979409 C214.685963,43.103338 224.383395,42.1854398 234.203762,42.1854398 C243.451642,42.1854398 251.154886,42.9977995 257.367981,44.6225433 C263.653418,46.247287 267.168627,48.3458829 267.859455,50.9183938 C268.342044,52.7154589 267.216251,54.3586409 264.456421,55.8479894 C261.66243,57.3373378 257.450432,58.5035663 251.819472,59.3467098 C246.153246,60.1898534 239.794687,60.6114188 232.770053,60.6114188 C227.301211,60.6114188 222.645848,60.3714035 218.8136,59.8913655 C214.994386,59.4113276 211.895585,58.8082121 209.516512,58.0820009 C207.149687,57.3557896 205.332933,56.2595715 204.119691,54.9430855 C202.805689,53.517265 201.740159,50.8612987 203.562007,48.6659788 C205.383855,46.4706588 207.67262,45.7568372 210.207036,44.7979409 Z M216.827565,54.7956038 C218.853508,56.3588042 221.713012,57.5004158 225.404066,58.2204726 C229.113944,58.9405295 233.110929,59.3005526 237.381022,59.3005526 C242.824219,59.3005526 247.270008,58.7343625 250.696179,57.6019653 C254.092555,56.4695682 255.521278,54.7279182 255.004734,52.3769633 C254.574731,50.4198856 253.154033,48.7305467 250.759322,47.3088959 C248.386909,45.8872451 245.550019,44.884104 242.242491,44.2994424 C238.949164,43.7147808 235.38317,43.4224544 231.533755,43.4224544 C226.091478,43.4224544 221.732863,43.9701818 218.436577,45.065653 C215.112023,46.1611241 213.517762,47.8658486 213.674945,50.1798776 C213.777783,51.6938434 214.823241,53.2324034 216.827565,54.7956038 Z M297.805644,56.4572652 C299.570698,56.8880685 300.572211,57.4111789 300.806454,58.0266121 C301.036012,58.6297367 300.412068,59.1466929 298.930788,59.5774962 C297.444422,60.0082994 295.545905,60.2236978 293.238995,60.2236978 C290.885005,60.2236978 288.812004,60.0082994 287.023746,59.5774962 C285.240574,59.1466929 284.254364,58.6297367 284.061273,58.0266121 C283.864241,57.4111789 284.510806,56.8880685 285.997172,56.4572652 C287.478452,56.026462 289.375546,55.8110636 291.692325,55.8110636" id="No." fill="#FFFFFF"></path>
            </g>
            <text id="&lt;g-id=&quot;no&quot;>" sketch:type="MSTextLayer" font-family="Helvetica" font-size="23" font-weight="normal" letter-spacing="0.100000001" fill="#979797">
                <tspan x="431.121115" y="375.801154">&lt;g id="no"&gt;</tspan>
            </text>
            <g id="yes" transform="translate(0.495167, 202.025123)" sketch:type="MSShapeGroup">
                <path d="M53.1196106,4.06552184 L-0.242464699,88.7619419 C-1.52288327,90.7942255 4.50543296,92.4417168 13.229643,92.4417168 L376.675708,92.4417168 C385.396566,92.4417168 391.428726,90.7950066 390.147816,88.7619419 L336.78574,4.06552184 C335.505322,2.03323826 329.476021,0.385746911 323.313633,0.385746911 L66.5917183,0.385746911 C60.4316973,0.385746911 54.4005213,2.03245716 53.1196106,4.06552184 Z" id="Rectangle-1" fill="#A2D529"></path>
                <path d="M80.0086151,34.5910976 L95.850782,33.7269238 C97.4951341,33.8985336 98.6101651,34.0609477 99.1947592,34.2141707 C99.7801245,34.3673938 100.957853,34.8362494 102.736878,35.6207516 C105.390104,36.7852471 108.407981,38.3726145 111.816844,40.3829013 C115.288446,42.3931882 119.007647,44.6915001 122.995857,47.2779058 C128.268506,45.2798767 133.620727,43.1102704 139.040577,40.7690216 L154.143776,34.0946573 L163.968735,34.0946573 L163.90845,34.5910976 C161.45159,35.3388263 156.866971,36.9629667 150.072291,39.4635674 C146.087016,40.9099934 140.799058,43.0121826 134.144799,45.7701981 C129.926792,47.4740388 127.502703,48.5190046 126.90784,48.9051268 C126.311552,49.291249 125.969147,49.6559144 125.881686,49.9991342 L125.52091,51.4149084 C125.096097,53.0819756 124.751626,54.7061159 124.48868,56.2873782 C124.333004,57.4518736 124.49702,58.1444316 124.980493,58.3650728 C125.464817,58.5857141 126.292965,58.7481281 127.464993,58.8523198 C128.637913,58.9565115 132.017851,59.0208642 137.604975,59.0453799 L137.364046,60.2221274 C129.694125,60.1240646 123.054679,60.0750339 117.441488,60.0750339 C112.064144,60.0750339 104.949519,60.1240646 96.0927848,60.2221274 L96.5063777,59.0453799 C102.060145,59.0208642 105.464143,58.9565115 106.718519,58.8523198 C107.971986,58.7481281 108.837898,58.6041006 109.316545,58.4202329 C110.000727,58.1750759 110.5556,57.5805793 110.981269,56.6367251 C111.105659,56.3793103 111.724224,54.6387221 112.834612,51.4149084 L113.482968,49.263667 C112.698689,48.7120639 111.923885,48.2156286 111.157839,47.7743461 C110.622599,47.4678999 108.664945,46.4137409 105.323648,44.6118374 L101.613666,42.6260761 C98.7387366,41.0570717 96.6083187,39.9416244 95.1978781,39.2797006 C92.5133055,38.0048846 90.2539931,37.0916887 88.4031149,36.5400856 C87.4074681,36.2336394 86.3217652,36.0191303 85.1448477,35.8965518 C83.9691025,35.7739733 82.0892383,35.712685 79.5043196,35.712685 L80.0086151,34.5910976 Z M210.477441,58.696033 C207.261847,59.2231205 204.899414,59.5724639 203.397844,59.7440737 C201.189191,60.0014885 198.657388,60.219062 195.802697,60.3968008 C192.944398,60.5745396 189.930449,60.6634076 186.763466,60.6634076 C180.524037,60.6634076 174.899571,60.3263219 169.908055,59.6521403 C164.940746,58.9779587 161.151388,57.969766 158.54181,56.6275317 C155.959033,55.2852975 154.809341,53.7132522 155.0726,51.9113487 C155.27855,50.5016963 156.178603,49.2299638 157.763795,48.0961129 C159.337002,46.9622621 161.050791,46.1256766 162.908774,45.5863313 C164.251426,45.1940802 166.310217,44.7436111 169.080261,44.2349105 C171.839892,43.7262098 174.558625,43.3247714 177.239909,43.030583 C180.762155,42.6260741 184.552769,42.4238227 188.619908,42.4238227 C193.571206,42.4238227 198.050873,42.7363931 202.073281,43.3615433 C206.114674,43.9866934 209.106131,44.838601 211.044906,45.9172916 C212.998884,46.9959821 214.029758,48.2156195 214.126155,49.5762406 C214.150471,49.9194603 214.088928,50.3362208 213.94103,50.8265347 C210.666453,50.9981445 207.727464,51.1084635 205.12638,51.1574949 C200.195538,51.2555577 195.261161,51.3045883 190.325765,51.3045883 L168.322237,51.3045883 C168.242829,53.0574604 169.248758,54.4762849 171.35214,55.5611044 C173.472814,56.6459238 176.47162,57.4457363 180.3465,57.9605659 C184.235806,58.4753955 188.298309,58.7328064 192.523311,58.7328064 C195.386924,58.7328064 198.237354,58.6132942 201.071048,58.3742662 C203.899888,58.1352382 207.381901,57.6970267 211.506551,57.0596187 L212.646339,57.3721922 L210.477441,58.696033 Z M175.683631,49.9623608 C182.456268,50.02365 187.117338,50.0542942 189.664684,50.0542942 C195.714631,50.0542942 199.694264,50.02365 201.603054,49.9623608 C201.641258,49.6681725 201.658348,49.4414057 201.654397,49.2820537 C201.606385,47.3453139 200.13771,45.923425 197.26294,45.0163443 C194.407651,44.1092636 190.611182,43.6557301 185.858806,43.6557301 C180.839943,43.6557301 176.764216,44.1521655 173.614263,45.1450511 C170.44132,46.1379367 168.719103,47.7069175 168.464264,49.8520407 C169.733563,49.8888143 172.139841,49.9255873 175.683631,49.9623608 Z M229.822991,54.6693505 C229.959287,55.3803056 230.170119,55.9441581 230.455839,56.3609249 C230.742259,56.7776917 231.191576,57.185259 231.804483,57.583639 C232.418993,57.982019 233.33143,58.3191048 234.542352,58.5949063 C235.755587,58.8707079 237.067684,59.085217 238.478084,59.2384401 C239.89,59.3916631 241.318342,59.4927889 242.762392,59.5418203 C244.206944,59.5908516 246.389245,59.615367 249.308983,59.615367 C254.112423,59.615367 257.981955,59.2844101 260.906782,58.6224863 C263.81706,57.9605626 265.121364,57.0534955 264.830643,55.9012579 C264.700747,55.3864284 264.111678,54.9328948 263.065442,54.5406437 C262.021904,54.1483926 260.586588,53.841951 258.759565,53.6213098 C256.935392,53.4006686 253.063773,53.1126135 247.153815,52.7571359 C241.259007,52.4016584 237.456676,52.1442474 235.736831,51.9848954 C233.135313,51.7274806 231.057201,51.4149102 229.501861,51.0471748 C227.950592,50.6794394 226.699276,50.2136482 225.747588,49.6497873 C224.79959,49.0859263 224.290956,48.4730432 224.218904,47.8111194 C224.113496,46.8427495 224.946011,45.9510045 226.70796,45.1358577 C228.458557,44.3207109 231.273035,43.6587971 235.148597,43.1500964 C239.008966,42.6413958 243.253987,42.3870493 247.895182,42.3870493 C250.679899,42.3870493 253.930588,42.4943038 257.651828,42.7088162 C261.379042,42.9233285 264.438803,43.1899327 266.830893,43.5086367 C266.88823,44.8692577 267.038674,46.2543736 267.28356,47.664026 L263.428618,47.664026 C262.975908,46.7692032 262.568653,46.1808354 262.206177,45.8989049 C261.844315,45.6169744 261.390149,45.3656923 260.843817,45.1450511 C260.298298,44.9244098 259.393168,44.6884498 258.129495,44.4371639 C256.868099,44.1858781 255.270704,43.9621757 253.337653,43.7660502 C251.407399,43.5699246 249.067456,43.4718633 246.315656,43.4718633 C242.409875,43.4718633 239.323156,43.7905626 237.046825,44.4279706 C234.75905,45.0653786 233.673136,45.8130961 233.797633,46.6711454 C233.866996,47.1492014 234.275862,47.5598331 235.025581,47.9030528 C235.777086,48.2462725 236.757905,48.5251344 237.968132,48.7396467 C239.180231,48.954159 240.866598,49.1472172 243.02791,49.3188271 L254.489258,50.0726809 C260.315603,50.464932 264.353687,50.8020177 266.594562,51.0839482 C268.839931,51.3658787 270.709918,51.8040901 272.205548,52.3985957 C273.706963,52.9931013 274.580611,53.7071101 274.822177,54.5406437 C275.301756,56.1954531 273.113169,57.6387929 268.221778,58.8707065 C263.284293,60.1026201 256.377907,60.7185677 247.536986,60.7185677 C243.471107,60.7185677 238.03352,60.5592181 231.23553,60.240514 C227.485652,60.0566463 225.467125,59.9279409 225.176342,59.8543938 C224.983879,59.8176202 224.883095,59.7563319 224.873949,59.670527 C224.864804,59.5847221 224.900768,59.4805319 224.981781,59.3579535 C225.347983,58.8308661 225.573317,58.3160442 225.658602,57.8134725 C225.743382,57.3109008 225.743779,56.2628706 225.659371,54.6693505 L229.822991,54.6693505 Z M298.144893,35.7678451 L298.78332,46.2298651 L299.31507,52.0216688 L295.873691,52.9410027 L294.496631,52.7571359 C293.232234,50.2810508 290.860297,46.6466538 287.422806,41.8538356 C286.019619,39.8558066 285.080255,38.4431109 284.597576,37.6157062 C284.116147,36.7883016 283.772562,36.0130044 283.565692,35.2897914 C287.045143,34.7994776 290.210636,34.309171 293.063992,33.8188572 L297.361775,33.8188572 L298.144893,35.7678451 Z M304.19612,56.6551117 C305.974929,57.0841364 306.98939,57.6050871 307.235809,58.2179794 C307.477299,58.8186139 306.861009,59.3334358 305.383139,59.7624604 C303.90023,60.191485 301.999897,60.4059941 299.685862,60.4059941 C297.324601,60.4059941 295.241069,60.191485 293.43898,59.7624604 C291.64193,59.3334358 290.642629,58.8186139 290.437268,58.2179794 C290.227715,57.6050871 290.866274,57.0841364 292.349182,56.6551117 C293.827052,56.2260871 295.726266,56.011578 298.05066,56.011578 C300.375054,56.011578 302.422278,56.2260871 304.19612,56.6551117 Z" id="Yes!" fill="#FFFFFF"></path>
            </g>
            <text id="&lt;g-id=&quot;yes&quot;-class=&quot;h" sketch:type="MSTextLayer" font-family="Helvetica" font-size="23" font-weight="normal" letter-spacing="0.100000001">
                <tspan x="431.121115" y="257.175223" fill="#979797">&lt;g id="</tspan>
                <tspan x="503.931955" y="257.175223" fill="#000000">yes</tspan>
                <tspan x="540.023459" y="257.175223" fill="#979797">" class="hidden"&gt;</tspan>
            </text>
        </g>
        <text id="background-image:-ur" sketch:type="MSTextLayer" font-family="Helvetica" font-size="23" font-weight="normal" letter-spacing="0.0999999866">
            <tspan x="101.210257" y="65.0116246" fill="#979797">background-image: url(yes-no.svg</tspan>
            <tspan x="452.12803" y="65.0116246" font-size="14" letter-spacing="0.116666652" fill="#979797"> </tspan>
            <tspan x="456.134345" y="65.0116246" fill="#000000">#yes</tspan>
            <tspan x="505.117353" y="65.0116246" fill="#979797">);</tspan>
        </text>
        <text id=".hidden-{-display:-n" sketch:type="MSTextLayer" font-family="Helvetica" font-size="24" font-weight="normal" line-spacing="35" letter-spacing="0.100000001" fill="#000000">
            <tspan x="95.7808337" y="141.106235">.hidden { display: none; }</tspan>
            <tspan x="95.7808337" y="176.106235">:target { display: block; }</tspan>
        </text>
        <g id="CSS" sketch:type="MSLayerGroup" transform="translate(687.681343, 30.620294)">
            <rect id="Rectangle-6" fill="#CDE87D" sketch:type="MSShapeGroup" x="-0.202089202" y="0" width="92.6783559" height="50.7826608" rx="10"></rect>
            <text sketch:type="MSTextLayer" font-family="Helvetica" font-size="23.375" font-weight="normal" sketch:alignment="middle" fill="#000000">
                <tspan x="22.1058082" y="33.1565322">CSS</tspan>
            </text>
        </g>
        <g id="SVG" sketch:type="MSLayerGroup" transform="translate(687.681343, 131.006158)">
            <rect id="Rectangle-7" fill="#93DDEC" sketch:type="MSShapeGroup" x="-0.202089202" y="0" width="92.6783559" height="50.7826608" rx="10"></rect>
            <text sketch:type="MSTextLayer" font-family="Helvetica" font-size="23.375" font-weight="normal" sketch:alignment="middle" fill="#000000">
                <tspan x="21.4552345" y="33.1565322">SVG</tspan>
            </text>
        </g>
    </g>
</svg>