<svg><defs> <path id="bubble" d="M50 6.25c27.614 0 50 18.188 50 40.625 0 22.437-22.386 40.625-50 40.625-2.652 0-5.255-0.169-7.795-0.493-10.74 10.74-23.56 12.666-35.955 12.949v-2.629c6.693-3.279 12.5-9.252 12.5-16.078 0-0.953-0.074-1.888-0.211-2.802-11.308-7.448-18.539-18.824-18.539-31.573 0-22.437 22.386-40.625 50-40.625z"></path> <path id="camera" d="M29.688 59.375c0 11.218 9.094 20.313 20.313 20.313s20.313-9.094 20.313-20.313-9.094-20.313-20.313-20.313-20.313 9.094-20.313 20.313zM93.75 25h-21.875c-1.563-6.25-3.125-12.5-9.375-12.5h-25c-6.25 0-7.813 6.25-9.375 12.5h-21.875c-3.438 0-6.25 2.813-6.25 6.25v56.25c0 3.438 2.813 6.25 6.25 6.25h87.5c3.438 0 6.25-2.813 6.25-6.25v-56.25c0-3.438-2.813-6.25-6.25-6.25zM50 87.109c-15.317 0-27.734-12.417-27.734-27.734 0-15.317 12.417-27.734 27.734-27.734 15.318 0 27.734 12.417 27.734 27.734 0 15.318-12.417 27.734-27.734 27.734zM93.75 43.75h-12.5v-6.25h12.5v6.25z"></path>  <!--  viewbox="0 0 365 185" --> <g id="car"> <rect x="70" y="10" width="220" height="130" fill="transparent" rx="150" stroke="crimson" stroke-width="10"></rect> <rect x="10" y="70" width="340" height="80" fill="crimson" rx="30"></rect> <g stroke="crimson" stroke-width="10"> <line x1="145" y1="10" x2="145" y2="80"></line> <line x1="215" y1="10" x2="215" y2="80"></line> </g> <g fill="#999"> <rect x="0" y="110" width="40" height="20" rx="10"></rect> <rect x="325" y="110" width="40" height="20" rx="10"></rect> </g> <g> <circle r="40px" fill="#222" stroke="white" stroke-width="7" cx="90" cy="140"></circle> <circle r="15px" fill="#555" cx="90" cy="140"></circle> </g> <g> <circle r="40px" fill="#222" stroke="white" stroke-width="7" cx="270" cy="140"></circle> <circle r="15px" fill="#555" cx="270" cy="140"></circle> </g> <g> <circle r="15px" fill="gold" cx="340" cy="90"></circle> <circle r="10px" fill="orange" cx="15" cy="90"></circle> </g> </g>  <path id="cog" d="M100 59.384v-18.768l-14.333-2.389c-0.582-1.771-1.291-3.483-2.119-5.127l8.443-11.82-13.271-13.271-11.799 8.428c-1.651-0.835-3.373-1.552-5.153-2.139l-2.383-14.298h-18.768l-2.383 14.298c-1.78 0.587-3.502 1.304-5.153 2.139l-11.8-8.428-13.271 13.271 8.443 11.82c-0.827 1.644-1.537 3.356-2.118 5.127l-14.333 2.389v18.768l14.367 2.395c0.582 1.755 1.29 3.452 2.113 5.081l-8.471 11.86 13.271 13.271 11.88-8.486c1.621 0.815 3.31 1.516 5.055 2.093l2.4 14.402h18.768l2.4-14.402c1.746-0.577 3.434-1.278 5.055-2.093l11.88 8.486 13.271-13.271-8.471-11.86c0.823-1.629 1.531-3.326 2.113-5.081l14.367-2.394zM50 62.5c-6.904 0-12.5-5.596-12.5-12.5 0-6.904 5.596-12.5 12.5-12.5 6.904 0 12.5 5.596 12.5 12.5 0 6.904-5.596 12.5-12.5 12.5z"></path>  <path id="heart" d="M100 34.976c0 8.434-3.635 16.019-9.423 21.274h0.048l-31.25 31.25c-3.125 3.125-6.25 6.25-9.375 6.25s-6.25-3.125-9.375-6.25l-31.202-31.25c-5.788-5.255-9.423-12.84-9.423-21.274 0-15.865 12.861-28.726 28.726-28.726 8.434 0 16.019 3.635 21.274 9.423 5.255-5.788 12.84-9.423 21.274-9.423 15.865 0 28.726 12.861 28.726 28.726z"></path>  <path id="home" d="M100 59.375l-18.75-18.75v-28.125h-12.5v15.625l-18.75-18.75-50 50v3.125h12.5v31.25h31.25v-18.75h12.5v18.75h31.25v-31.25h12.5z"></path>  <path d="M21 4.5h-18v15h18v-15zM24 1.5v0 21h-24v-21h24zM19.5 18h-15v-3l4.5-7.5 6.164 7.5 4.336-3v1.5zM15 8.25c0-1.243 1.007-2.25 2.25-2.25s2.25 1.007 2.25 2.25c0 1.243-1.007 2.25-2.25 2.25-1.243 0-2.25-1.007-2.25-2.25z" fill="currentColor" id="image"></path>  <path d="M50 500c-27.614 0-50-22.386-50-50v-400c0-27.614 22.386-50 50-50h400c27.615 0 50 22.386 50 50v219.224l-84.141-84.141-17.678 17.678 101.818 101.818v35.355l-119.496-119.496-17.678 17.678 137.174 137.174v35.397l-154.851-154.851-17.677 17.677 172.528 172.528v3.961c0 27.614-22.385 50-50 50h-109.618c4.128-39.908-9.142-81.331-39.788-111.978l-61.52-61.518-61.517-61.518c-24.497-24.498-24.568-64.143-.161-88.55 24.407-24.407 64.053-24.335 88.549.161l8.484 8.484v106.067l159.1-159.1h-106.067l-8.484-8.484c-53.893-53.893-141.111-54.051-194.808-.354s-53.539 140.916.354 194.809l61.518 61.518 61.519 61.518c16.006 16.006 21.584 38.48 16.719 58.945zm0 0" fill="#4B86C2" id="logo"></path>  <text x="0" y="95%" id="text-svg">SVG</text> </defs></svg>