<svg xmlns="http://www.w3.org/2000/svg" xmlns:xlink="http://www.w3.org/1999/xlink">
  <!--  width="300" height="60" -->
    <defs>
      <symbol id="s-path">
        <path d="M 50,30 250,30" stroke-width="60"/>
      </symbol>

      <symbol id="s-path-guide">
        <g transform="translate(0,20)">
        <circle r="9" cx="50" cy="10"/>
        <circle r="9" cx="250" cy="10"/>
        <path d="M 50,10 250 10" stroke-width="5"/>
        </g>
      </symbol>

      <symbol id="s-corner">
         <path d="M 0 50 h 80 v 80" stroke-width="60" fill="none" transform="rotate(-45 70 50)"/>
      </symbol>

      <symbol id="s-corner-guide">
        <g transform="rotate(-45 70 50)">
            <circle r="9" cx="0" cy="50"/>
            <circle r="9" cx="80" cy="130"/>
            <path d="M 0 50 h 80 v 80" stroke-width="5" fill="none" />
        </g>
      </symbol>

      <symbol id="s-dasharray">
          <path d="M 0,50
               Q100,0 200,50
               300,100 400,50
               500,0 600,50
               700,100 800,50" transform="translate(10)"/>
      </symbol>

      <symbol id="s-dashoffset">
          <circle r="100" cx="135" cy="135"></circle>
      </symbol>

      <symbol id="s-strokefill">
          <circle r="100" cx="150" cy="150"></circle>
      </symbol>

      <symbol id="s-stroke-opacity">
          <circle r="95" cx="150" cy="150"></circle>
      </symbol>

      <symbol id="s-transform-before">
          <rect x="2" y="2" width="496" height="276"
            class="rect-transform-before"></rect>
      </symbol>
      <symbol id="s-transform-after">
          <rect x="2" y="2" width="496" height="276"
            class="rect-transform-after"></rect>
      </symbol>

      <symbol id="s-viewbox">
          <g class="gr--star-viewbox">
            <rect width="100%" height="100%" class="bg"/>
            <rect width="200" height="200" class="bounds"/>
            <circle r="87" cx="100" cy="100"/>
            <use xlink:href="#s-star" class="star"/>
          </g>
      </symbol>

      <symbol id="s-star">
        <polygon points="98.4999978 153.75 38.2520165 185.424245 49.7583542 118.337123 1.01670635 70.8257603 68.3760155 61.037872 98.5000012 1.1379786e-14 128.624005 61.0378871 195.98331 70.8258091 147.241642 118.337136 158.747982 185.424247" />
      </symbol>

      <symbol id="s-kuler-bg">
        <rect y="0" width="200" height="300" fill="url(#gr-kuler)"/>
      </symbol>

      <symbol id="s-flower-m">
        <image xlink:href="./assets/img/parts/violet-flower-l.jpg" width="199" height="300"/>
      </symbol>

      <symbol id="s-flower-l">
        <image xlink:href="./assets/img/parts/violet-flower-l.jpg" width="332" height="500" transform="translate(0,-30)"/>
      </symbol>

      <symbol id="s-mosaic-colored">
        <rect width="100%" height="100%" fill="url(#pt-mosaic-colored)"/>
      </symbol>

      <symbol id="s-airballoon">
        <g class="g-icon--airballoon">
          <path d="M175 58.756c0-39.538-28.619-58.756-87.5-58.756s-87.5 19.219-87.5 58.756c0 45.469 82.331 97.925 85.831 100.131 0.006 0.006 0.019 0 0.031 0.006 0.069 0.044 0.144 0.044 0.219 0.081 0.45 0.238 0.925 0.4 1.419 0.4s0.969-0.162 1.419-0.394c0.069-0.037 0.15-0.037 0.219-0.081 0.006-0.006 0.019 0 0.031-0.006 3.5-2.213 85.831-54.663 85.831-100.137z" />
          <path d="M71.875 168.75c-1.725 0-3.125 1.4-3.125 3.125v18.75c0 5.256 4.119 9.375 9.375 9.375h18.75c5.256 0 9.375-4.119 9.375-9.375v-18.75c0-1.725-1.4-3.125-3.125-3.125h-31.25z"/>
          <path d="M6.25 58.756c0-24.819 12.419-40.438 38.475-47.7-13.213 9.575-19.725 25.4-19.725 47.7 0 26.269 19.594 54.95 36.487 74.831-24.113-19.175-55.237-48.937-55.237-74.831z"/>
          <path d="M56.25 58.756c0 29.981 12.369 63.381 20.819 82.725-17.138-18.106-45.819-52.85-45.819-82.725 0-29.313 11.988-45.794 37.356-50.825-8.275 9.050-12.356 25.888-12.356 50.825z"/>
          <path d="M112.5 58.756c0 34.75-17.975 75.756-25 90.456-7.025-14.694-25-55.681-25-90.456 0-47.063 14.269-52.506 25-52.506s25 5.444 25 52.506z"/>
          <path d="M118.75 58.756c0-24.938-4.075-41.775-12.356-50.825 25.369 5.031 37.356 21.519 37.356 50.825 0 29.875-28.681 64.612-45.819 82.725 8.45-19.337 20.819-52.744 20.819-82.725z"/>
          <path d="M113.512 133.588c16.894-19.881 36.488-48.556 36.488-74.831 0-22.3-6.513-38.131-19.725-47.7 26.056 7.263 38.475 22.881 38.475 47.7 0 25.894-31.125 55.656-55.238 74.831z"/>
          <path d="M100 190.625c0 1.838-1.287 3.125-3.125 3.125h-18.75c-1.838 0-3.125-1.287-3.125-3.125v-15.625h25v15.625z"/>
        </g>
      </symbol>

      <!-- ICONMELONS -->

      <symbol id="hamburger" viewBox="0 0 32 32">
        <path fill="#DDAF6D" d="M18 0h-4c-5.523 0-13 4.478-13 10v1c0 .553.447 1 1 1h28c.553 0 1-.447 1-1v-1c0-5.522-7.477-10-13-10zm-17 28c0 1.105.896 2 2 2h26c1.104 0 2-.895 2-2v-2h-30v2z"></path>
        <path fill="#BB6F39" d="M2 22h28c1.104 0 2 .896 2 2 0 1.105-.896 2-2 2h-28c-1.104 0-2-.895-2-2 0-1.104.896-2 2-2z"></path>
        <path fill="#EFC75E" d="M2 18h28v4h-2l-3 3-2.996-3h-20.004v-4z"></path>
        <path fill="#3DB39E" d="M30 15.051v-.051h-28v.051c-1.141.231-2 1.239-2 2.449 0 1.381 1.119 2.5 2.5 2.5 1.209 0 2.218-.857 2.449-2h4.051c0 1.104 1.119 2 2.5 2s2.5-.896 2.5-2h4c0 1.104 1.119 2 2.5 2s2.5-.896 2.5-2h4.051c.231 1.143 1.239 2 2.449 2 1.381 0 2.5-1.119 2.5-2.5 0-1.21-.857-2.218-2-2.449z"></path>
        <path fill="#BF392C" d="M2 12h28v3h-28v-3z"></path>
        <g fill="#C69D63">
          <path d="M2 12h2c-.553 0-1-.447-1-1v-1c0-5.522 7.477-10 13-10h-2c-5.523 0-13 4.478-13 10v1c0 .553.447 1 1 1zM3 28v-2h-2v2c0 1.105.896 2 2 2h2c-1.104 0-2-.895-2-2z"></path>
        </g>
        <path fill="#A86433" d="M2 24c0-1.104.896-2 2-2h-2c-1.104 0-2 .896-2 2 0 1.105.896 2 2 2h2c-1.104 0-2-.895-2-2z"></path>
        <g fill="#37A18E">
          <path d="M2 17.5c0-1.21.859-2.218 2-2.449v-.051h-2v.051c-1.141.231-2 1.239-2 2.449 0 1.381 1.119 2.5 2.5 2.5.354 0 .688-.081.994-.214-.879-.388-1.494-1.265-1.494-2.286zM11 18h-2c0 1.104 1.119 2 2.5 2 .356 0 .693-.062 1-.169-.882-.31-1.5-1.011-1.5-1.831zM20 18h-2c0 1.104 1.119 2 2.5 2 .355 0 .693-.062 1-.169-.882-.31-1.5-1.011-1.5-1.831zM29.051 18h-2c.231 1.143 1.239 2 2.449 2 .357 0 .697-.078 1.006-.214-.736-.321-1.291-.979-1.455-1.786z"></path>
        </g>
      </symbol>

      <symbol id="flag" viewBox="0 0 32 32">
        <path fill="#324D5B" d="M2 0v32h-2v-32h2z"></path>
        <path fill="#CB4E44" d="M14 5.001h13v18.999h-13v-18.999z"></path>
        <path fill="#D8B863" d="M17 5.001v2.999h10v-2.999h-10zm-3 18.999h13v-3h-13v3z"></path>
        <path fill="#A28A4A" d="M14 21h3l-3 3v-3z"></path>
        <path fill="#E2574C" d="M2 2h15v19h-15v-19z"></path>
        <path fill="#F1CD6E" d="M2 2v3.001h15v-3.001h-15zm0 19h15v-3h-15v3z"></path>
      </symbol>

      <symbol id="eye" viewBox="0 0 32 32">
        <g transform="translate(2,2) scale(0.9)">
          <path fill="#E4E7E7" stroke="#324D5B" d="M16 .004c8.837 0 16 7.163 16 16 0 8.836-7.163 16-16 16s-16-7.164-16-16c0-8.837 7.163-16 16-16z"></path>
          <path fill="#26A6D1" d="M16 5.003c6.075 0 11 4.925 11 11 0 6.074-4.925 11-11 11s-11-4.926-11-11c0-6.075 4.925-11 11-11z"></path>
          <path fill="#324D5B" d="M16 10.003c3.313 0 6 2.686 6 6s-2.687 6-6 6-6-2.686-6-6 2.687-6 6-6z"></path>
          <path fill="#D4EDF6" d="M20.5 10.003c1.381 0 2.5 1.119 2.5 2.5s-1.119 2.5-2.5 2.5-2.5-1.119-2.5-2.5 1.119-2.5 2.5-2.5z"></path>
          <path fill="#D6DBDE" d="M21.831 14.613c-.405-1.704-1.532-3.126-3.046-3.921-.481.455-.785 1.096-.785 1.811 0 1.381 1.119 2.5 2.5 2.5.491 0 .945-.146 1.331-.39z"></path>
          <path fill="#2296BD" d="M17 26.003c-6.075 0-11-4.926-11-11 0-2.783 1.042-5.317 2.746-7.254-2.292 2.016-3.746 4.962-3.746 8.254 0 6.074 4.925 11 11 11 3.292 0 6.238-1.454 8.254-3.746-1.938 1.704-4.471 2.746-7.254 2.746z"></path>
        </g>
      </symbol>

      <symbol id="umbrella" viewBox="0 0 32 32">
        <path fill="#324D5B" d="M15.042 10l-.006 18.913c0 .697-.705 1.264-1.494 1.264-.79 0-1.432-.564-1.432-1.264 0-.502-.463-.912-1.035-.912-.57 0-1.033.41-1.033.912 0 .826.363 1.602 1.025 2.186.662.581 1.54.901 2.475.901s1.813-.32 2.475-.904c.654-.576 1.016-1.342 1.021-2.156l.004-.002v-18.938h-2z"></path>
        <path fill="#3DB39E" d="M15.966 0c-8.133 0-14.853 6.169-15.924 13.972.905-.27 2.871-1.018 3.963-1.018 2.93 0 5.159 1.533 5.992 3.043l.003.001.001-.003c.833-1.508 3.16-3.01 6.089-3.01 2.93 0 5.158 1.502 5.992 3.01l.006.005.004-.004s3.002-3.01 5.931-3.01c1.253 0 2.983.641 3.978.988-1.014-7.864-7.855-13.974-16.035-13.974z"></path>
        <path fill="#318F7E" d="M16.243.013l-.039-.001c-4.009 2.263-6.182 7.241-6.202 15.987l.001-.003c.833-1.508 3.16-3.01 6.089-3.01 2.93 0 5.159 1.502 5.993 3.01-.017-8.744-1.818-13.517-5.842-15.983z"></path>
      </symbol>

      <symbol id="s--preloader-circle">
        <circle r="10" cx="20" cy="20"
           transform="translate(5,5) scale(.9)"/>
      </symbol>

      <symbol id="s--preloader-heart" viewBox="0 0 140 140">
        <path  d="m16.335,8.3327c5.60066,-14.64803 27.54336,0 0,18.83319c-27.54335,-18.83319 -5.60061,-33.48122 0,-18.83319z" transform="translate(7,2) rotate(-45, 20,20)"/>
      </symbol>

      <symbol id="s--preloader-trapez">
        <path  d="m0,33.50001l6.03125,-33.50001l20.10417,0l6.03125,33.50001l-32.16667,0z"
              transform="scale(.8) translate(7,2) rotate(-220, 20,20)"/>
      </symbol>

      <symbol id="s--preloader-star">
        <path  d="m0,17.31586l17.31594,0l5.35075,-17.31586l5.35077,17.31586l17.31586,0l-14.00877,10.70167l5.351,17.31581l-14.00886,-10.7019l-14.00889,10.7019l5.35102,-17.31581l-14.00883,-10.70167l0,0z"
              transform="translate(8,8) scale(.6)  rotate(-40, 20,20)"/>
      </symbol>

      <symbol id="s--preloader-plus">
        <path  d="m0,9.37491l9.37491,-9.37491l9.95899,9.95902l9.95786,-9.95902l9.37491,9.37491l-9.95901,9.95899l9.95901,9.95786l-9.37491,9.37491l-9.95786,-9.95901l-9.95899,9.95901l-9.37491,-9.37491l9.95902,-9.95786l-9.95902,-9.95899z"
              transform="scale(.8) translate(7,5) rotate(-45, 20,20)"/>
      </symbol>

    </defs>
</svg>
